# ProBuilder 4.5.2
# https://unity3d.com/unity/features/worldbuilding/probuilder
# 4/5/2022 5:05:32 PM

mtllib ./Stairs.mtl
o Stairs

g Stairs
v -84.49 0.1999998 -13.18
v -87.25474 0.1999998 -15.32621
v -84.49 0.8249998 -13.18
v -87.25474 0.8249998 -15.32621
v -88.22371 0.8249998 -13.74941
v -85.05998 0.8249998 -12.25247
v -85.05998 1.45 -12.25247
v -88.22371 1.45 -13.74941
v -88.82844 1.45 -12.00025
v -85.4157 1.45 -11.22355
v -85.4157 2.075 -11.22355
v -88.82844 2.075 -12.00025
v -89.04024 2.075 -10.16168
v -85.54029 2.075 -10.14204
v -85.54029 2.7 -10.14204
v -89.04024 2.7 -10.16168
v -88.84908 2.7 -8.320839
v -85.42785 2.7 -9.059193
v -85.42785 3.325 -9.059193
v -88.84908 3.325 -8.320839
v -88.26402 3.325 -6.565009
v -85.08369 3.325 -8.026352
v -85.08369 3.95 -8.026352
v -88.26402 3.95 -6.565009
v -87.31281 3.95 -4.977431
v -84.52415 3.95 -7.092482
v -84.52415 4.575 -7.092482
v -87.31281 4.575 -4.977431
v -86.04051 4.575 -3.633364
v -83.77575 4.575 -6.301855
v -83.77575 5.2 -6.301855
v -86.04051 5.2 -3.633364
v -84.50748 5.2 -2.596533
v -82.87396 5.2 -5.691954
v -85.05998 0.1999998 -12.25247
v -85.4157 0.1999998 -11.22355
v -85.54029 0.1999998 -10.14204
v -85.42785 0.1999998 -9.059193
v -85.08369 0.1999998 -8.026352
v -84.52415 0.1999998 -7.092482
v -83.77575 0.1999998 -6.301855
v -82.87396 0.1999998 -5.691954
v -88.22371 0.1999998 -13.74941
v -88.82844 0.1999998 -12.00025
v -89.04024 0.1999998 -10.16168
v -88.84908 0.1999998 -8.320839
v -88.26402 0.1999998 -6.565009
v -87.31281 0.1999998 -4.977431
v -86.04051 0.1999998 -3.633364
v -84.50748 0.1999998 -2.596533

vt 0 0
vt 3.5 0
vt 0 0.625
vt 3.5 0.625
vt 0.1101923 -0.1785981
vt 3.58939 0.2024357
vt 3.188817 2.009303
vt -0.1254385 0.884265
vt 0.1185202 0.625
vt 3.61852 0.625
vt 0.1185202 1.25
vt 3.61852 1.25
vt 0.3662813 0.6558596
vt 3.358473 2.471566
vt 2.231815 3.939855
vt -0.2964585 1.519559
vt 0.4684612 1.25
vt 3.968461 1.25
vt 0.4684612 1.875
vt 3.968461 1.875
vt 0.5147644 1.658876
vt 2.459261 4.56902
vt 0.8176368 5.423595
vt -0.4508965 2.161568
vt 1.033233 1.875
vt 4.533233 1.875
vt 1.033233 2.5
vt 4.533233 2.5
vt 0.4466569 2.825389
vt 0.9790884 6.284655
vt -0.8698864 6.365383
vt -0.6409754 2.872876
vt 1.786062 2.5
vt 5.286062 2.5
vt 1.786062 3.125
vt 5.286062 3.125
vt 0.05483425 4.095519
vt -0.924568 7.455693
vt -2.634426 6.747446
vt -0.9509648 3.678903
vt 2.691257 3.125
vt 6.191257 3.125
vt 2.691257 3.75
vt 6.191257 3.75
vt -0.7402072 5.358264
vt -3.047917 7.989704
vt -4.298256 6.625197
vt -1.475701 4.555614
vt 3.705905 3.75
vt 7.205904 3.75
vt 3.705905 4.375
vt 7.205904 4.375
vt -1.968201 6.466287
vt -5.171791 7.875899
vt -5.728319 6.110819
vt -2.29557 5.428004
vt 4.781904 4.375
vt 8.281903 4.375
vt 4.781904 5
vt 8.281903 5
vt -3.893964 7.589062
vt -7.393131 7.51271
vt -7.151562 5.677807
vt -3.751864 6.509707
vt -1.088669 0
vt -1.088669 0.625
vt -1.062863 0
vt -2.151532 0
vt -1.062863 0.625
vt -2.151532 1.25
vt -1.062863 1.25
vt -2.049532 0
vt -3.138201 0
vt -2.049532 1.25
vt -3.138201 1.875
vt -2.049532 1.875
vt -2.913231 0
vt -4.0019 0
vt -2.913231 1.875
vt -4.0019 2.5
vt -2.913231 2.5
vt -3.613014 0
vt -4.701683 0
vt -3.613014 2.5
vt -4.701683 3.125
vt -3.613014 3.125
vt -4.115705 0
vt -5.204373 0
vt -4.115705 3.125
vt -5.204373 3.75
vt -4.115705 3.75
vt -4.397473 0
vt -5.486143 0
vt -4.397473 3.75
vt -5.486143 4.375
vt -4.397473 4.375
vt -4.444961 0
vt -5.533629 0
vt -4.444961 4.375
vt -5.533629 5
vt -4.444961 5
vt -0.3810337 0
vt 1.469703 0
vt -0.3810337 0.625
vt 1.469703 0.625
vt 0.6818284 0
vt 2.532565 0
vt 0.6818284 0.625
vt 2.532565 1.25
vt 0.6818284 1.25
vt 1.668498 0
vt 3.519235 0
vt 1.668498 1.25
vt 3.519235 1.875
vt 1.668498 1.875
vt 2.532198 0
vt 4.382935 0
vt 2.532198 1.875
vt 4.382935 2.5
vt 2.532198 2.5
vt 3.231979 0
vt 5.082716 0
vt 3.231979 2.5
vt 5.082716 3.125
vt 3.231979 3.125
vt 3.73467 0
vt 5.585406 0
vt 3.73467 3.125
vt 5.585406 3.75
vt 3.73467 3.75
vt 4.01644 0
vt 5.867178 0
vt 4.01644 3.75
vt 5.867178 4.375
vt 4.01644 4.375
vt 4.063926 0
vt 5.914662 0
vt 4.063926 4.375
vt 5.914662 5
vt 4.063926 5
vt -5.868241 0
vt -9.368241 0
vt -5.868241 5
vt -9.368241 5

vn 0.6132033 0 -0.7899252
vn 0 1 0
vn 0.4276968 0 -0.9039223
vn 0.2219141 0 -0.9750662
vn 0.005610811 0 -0.9999843
vn -0.2109583 0 -0.9774951
vn -0.4175265 0 -0.9086648
vn -0.6043004 0 -0.7967566
vn -0.7624258 0 -0.6470757
vn 0.8519875 0 0.5235621
vn 0.9039223 0 0.4276968
vn 0.9189236 0 0.3944355
vn 0.9750662 0 0.2219139
vn 0.9451118 0 0.3267474
vn 0.9999843 0 0.005610894
vn 0.9934299 0 0.1144425
vn 0.9774951 0 -0.2109582
vn 0.9946516 0 -0.1032874
vn 0.9086648 0 -0.4175265
vn 0.9487188 0 -0.3161213
vn 0.7967566 0 -0.6043004
vn 0.8578091 0 -0.5139684
vn 0.6470758 0 -0.7624257
vn 0.7262327 0 -0.6874489
vn 0.5602269 0 -0.8283393
vn -0.8519876 0 -0.5235621
vn -0.9039223 0 -0.4276968
vn -0.9189236 0 -0.3944355
vn -0.9750662 0 -0.221914
vn -0.9451118 0 -0.3267474
vn -0.9999843 0 -0.005610978
vn -0.99343 0 -0.1144426
vn -0.9774951 0 0.2109582
vn -0.9946516 0 0.1032874
vn -0.9086648 0 0.4175265
vn -0.9487188 0 0.3161213
vn -0.7967566 0 0.6043004
vn -0.8578091 0 0.5139685
vn -0.6470758 0 0.7624258
vn -0.7262328 0 0.6874489
vn -0.5602267 0 0.8283394
vn 0.8844061 0 0.4667183

usemtl Lit
f 7/71/14 10/70/13 6/69/12
f 11/76/16 14/75/15 10/74/13
f 15/81/18 18/80/17 14/79/15
f 19/86/20 22/85/19 18/84/17
f 23/91/22 26/90/21 22/89/19
f 27/96/24 30/95/23 26/94/21
f 31/101/25 34/100/25 30/99/23
f 5/108/28 9/109/29 8/110/30
f 9/113/29 13/114/31 12/115/32
f 13/118/31 17/119/33 16/120/34
f 17/123/33 21/124/35 20/125/36
f 21/128/35 25/129/37 24/130/38
f 25/133/37 29/134/39 28/135/40
f 29/138/39 33/139/41 32/140/41
f 2/2/1 4/4/1 3/3/1
f 3/3/1 1/1/1 2/2/1
f 4/6/2 5/7/2 6/8/2
f 6/8/2 3/5/2 4/6/2
f 5/10/3 8/12/3 7/11/3
f 7/11/3 6/9/3 5/10/3
f 8/14/2 9/15/2 10/16/2
f 10/16/2 7/13/2 8/14/2
f 9/18/4 12/20/4 11/19/4
f 11/19/4 10/17/4 9/18/4
f 12/22/2 13/23/2 14/24/2
f 14/24/2 11/21/2 12/22/2
f 13/26/5 16/28/5 15/27/5
f 15/27/5 14/25/5 13/26/5
f 16/30/2 17/31/2 18/32/2
f 18/32/2 15/29/2 16/30/2
f 17/34/6 20/36/6 19/35/6
f 19/35/6 18/33/6 17/34/6
f 20/38/2 21/39/2 22/40/2
f 22/40/2 19/37/2 20/38/2
f 21/42/7 24/44/7 23/43/7
f 23/43/7 22/41/7 21/42/7
f 24/46/2 25/47/2 26/48/2
f 26/48/2 23/45/2 24/46/2
f 25/50/8 28/52/8 27/51/8
f 27/51/8 26/49/8 25/50/8
f 28/54/2 29/55/2 30/56/2
f 30/56/2 27/53/2 28/54/2
f 29/58/9 32/60/9 31/59/9
f 31/59/9 30/57/9 29/58/9
f 32/62/2 33/63/2 34/64/2
f 34/64/2 31/61/2 32/62/2
f 3/3/10 6/66/12 35/65/11
f 35/65/11 1/1/10 3/3/10
f 6/69/12 10/70/13 36/68/13
f 36/68/13 35/67/11 6/69/12
f 10/74/13 14/75/15 37/73/15
f 37/73/15 36/72/13 10/74/13
f 14/79/15 18/80/17 38/78/17
f 38/78/17 37/77/15 14/79/15
f 18/84/17 22/85/19 39/83/19
f 39/83/19 38/82/17 18/84/17
f 22/89/19 26/90/21 40/88/21
f 40/88/21 39/87/19 22/89/19
f 26/94/21 30/95/23 41/93/23
f 41/93/23 40/92/21 26/94/21
f 30/99/23 34/100/25 42/98/25
f 42/98/25 41/97/23 30/99/23
f 43/103/27 5/105/28 4/104/26
f 4/104/26 2/102/26 43/103/27
f 44/107/29 9/109/29 5/108/28
f 5/108/28 43/106/27 44/107/29
f 45/112/31 13/114/31 9/113/29
f 9/113/29 44/111/29 45/112/31
f 46/117/33 17/119/33 13/118/31
f 13/118/31 45/116/31 46/117/33
f 47/122/35 21/124/35 17/123/33
f 17/123/33 46/121/33 47/122/35
f 48/127/37 25/129/37 21/128/35
f 21/128/35 47/126/35 48/127/37
f 49/132/39 29/134/39 25/133/37
f 25/133/37 48/131/37 49/132/39
f 50/137/41 33/139/41 29/138/39
f 29/138/39 49/136/39 50/137/41
f 34/143/42 33/144/42 50/142/42
f 50/142/42 42/141/42 34/143/42

